<svg height="289" width="1133" viewBox="158 92 1133 289" style="background-color:transparent;" preserveAspectRatio="xMinYMin meet" xmlns:xlink="http://www.w3.org/1999/xlink" xmlns="http://www.w3.org/2000/svg"><defs><style type="text/css">.svg-txt-center tspan {text-anchor: middle;}.svg-txt-right tspan {text-anchor: end;}</style></defs><g transform="translate(0,0)"><g transform="matrix(1,0,0,1,214,139)"><path style="fill:none;stroke:#333333;stroke-width:3.0;;" d="m2.866307304016864,0.04480215383113688l181.93981045816705,0.9952318826998984l-4.0858148544969835,35.90054565746897l-180.49783782125988,-0.14206604854604687z"/></g><text style="font-weight:bold; font-size: 12px; text-anchor: middle; font-family: arial,helvetica,sans-serif; fill: #333333;" class="" y="163" x="306">Sample: Php CLI WechatSend</text></g><g transform="translate(0,0)"><g transform="matrix(1,0,0,1,714,294)"><path style="fill:none;stroke:#333333;stroke-width:3.0;;" d="m2.742358880059378,0.04359128480867372l174.07214297889496,0.9683337237080091l-3.909130968897114,34.93026063969953l-172.69252591547567,-0.13822642561236992z"/></g><text style="font-weight:bold; font-size: 12px; text-anchor: middle; font-family: arial,helvetica,sans-serif; fill: #333333;" class="" y="318" x="802">ProcessWechatMessage</text></g><g transform="translate(0,0)"><g transform="matrix(1,0,0,1,1020,138)"><path style="fill:none;stroke:#333333;stroke-width:3.0;;" d="m3.6564785067458376,0.04601302285360004l232.09619063852662,1.0221300416917873l-5.212174625196152,36.870830675238395l-230.25670122063423,-0.1459056714797238z"/></g><text style="font-weight:bold; font-size: 12px; text-anchor: middle; font-family: arial,helvetica,sans-serif; fill: #333333;" class="" y="162" x="1138">Samle: SaveWechatMessageToDB</text></g><g transform="translate(0,0)"><g transform="matrix(1,0,0,1,610,280)"><path style="fill:none;stroke:#333333;stroke-width:3.0;;" d="m0.16208820752380368,13.415476976110162l0,42.27440187942714c0,0 12.191901896237098,13.319694678966432 30.071805645829926,12.16104319503781c17.879902588743665,-1.1584860568178388 27.22637513341009,-10.423396823366444 27.22637513341009,-10.423396823366444l0,-42.27440187942714"/><path style="fill:none;stroke:#333333;stroke-width:3.0;;" d="m30.232259377734813,0.6754388933296067c34.821812355738224,4.37885562244298 39.01155263074939,23.164592895922482 0,24.322582671407968c-39.01114401184467,1.1591477652609734 -41.44862542950168,-29.53370208820345 0,-24.322582671407968z"/></g><text style="font-weight:bold; font-size: 12px; text-anchor: middle; font-family: arial,helvetica,sans-serif; fill: #333333;" class="svg-txt-center" y="327" x="639">Queue</text></g><g transform="translate(0,0)"><g transform="matrix(1,0,0,1,919,204)"><path style="fill:none;stroke:#333333;stroke-width:3.0;;" d="m0.16208820752380368,13.415476976110162l0,42.27440187942714c0,0 12.191901896237098,13.319694678966432 30.071805645829926,12.16104319503781c17.879902588743665,-1.1584860568178388 27.22637513341009,-10.423396823366444 27.22637513341009,-10.423396823366444l0,-42.27440187942714"/><path style="fill:none;stroke:#333333;stroke-width:3.0;;" d="m30.232259377734813,0.6754388933296067c34.821812355738224,4.37885562244298 39.01155263074939,23.164592895922482 0,24.322582671407968c-39.01114401184467,1.1591477652609734 -41.44862542950168,-29.53370208820345 0,-24.322582671407968z"/></g><text style="font-weight:bold; font-size: 12px; text-anchor: middle; font-family: arial,helvetica,sans-serif; fill: #333333;" class="svg-txt-center" y="251" x="948">Queue</text></g><g transform="translate(0,0)"><g transform="matrix(1,0,0,1,1021,291)"><path style="fill:none;stroke:rgb(255,0,0);stroke-width:3.0;;" d="m3.3466074468521225,0.05085649894345268l212.42702194034638,1.129722677659344l-4.770464911196478,40.75197074631613l-210.7434214561737,-0.1612641632144316z"/></g><text style="font-weight:bold; font-size: 12px; text-anchor: middle; font-family: arial,helvetica,sans-serif; fill: #ff0000;" class="" y="315" x="1129">Your Code Here?</text></g><g transform="translate(0,0)"><g transform="matrix(1,0,0,1,193,291)"><path style="fill:none;stroke:rgb(255,0,0);stroke-width:3.0;;" d="m2.711371774070007,0.05085649894345268l172.10522610907697,1.129722677659344l-3.864959997497147,40.75197074631613l-170.74119793902963,-0.1612641632144316z"/></g><text style="font-weight:bold; font-size: 12px; text-anchor: middle; font-family: arial,helvetica,sans-serif; fill: #ff0000;" class="" y="315" x="280">Your Code Here?</text></g><g transform="translate(0,0)"><path style="fill:none;stroke:#333333;stroke-width:2;;" d="M401,157 C423,157 445,186  445,215"/><polyline style="fill:#ffffff;stroke:#333333;stroke-width:2;fill-opacity:0;" points="434,198 445,215 454,197"/><text style="font-weight:Normal; font-size: 12px; text-anchor: middle; font-family: sans-serif; fill: #333333;" class="" y="196" x="447"/><text style="font-weight:Normal; font-size: 12px; text-anchor: start; font-family: sans-serif; fill: #333333;" class="" y="175" x="431"/><text style="font-weight:Normal; font-size: 12px; text-anchor: middle; font-family: sans-serif; fill: #333333;" class="" y="159" x="421"/></g><g transform="translate(0,0)"><path style="fill:none;stroke:#333333;stroke-width:2;;" d="M370,312 C407.5,312 445,286.5  445,261"/><polyline style="fill:#ffffff;stroke:#333333;stroke-width:2;fill-opacity:0;" points="453,278 445,261 433,277"/><text style="font-weight:Normal; font-size: 12px; text-anchor: middle; font-family: sans-serif; fill: #333333;" class="" y="256" x="423"/><text style="font-weight:Normal; font-size: 12px; text-anchor: start; font-family: sans-serif; fill: #333333;" class="" y="296" x="421"/><text style="font-weight:Normal; font-size: 12px; text-anchor: middle; font-family: sans-serif; fill: #333333;" class="" y="291" x="372"/></g><g transform="translate(0,0)"><path style="fill:none;stroke:#333333;stroke-width:2;;" d="M571,193 C537.5,193 537.5,238  504,238"/><polyline style="fill:#ffffff;stroke:#333333;stroke-width:2;fill-opacity:0;" points="520,226 504,238 521,246"/><text style="font-weight:Normal; font-size: 12px; text-anchor: middle; font-family: sans-serif; fill: #333333;" class="" y="241" x="523"/><text style="font-weight:Normal; font-size: 12px; text-anchor: start; font-family: sans-serif; fill: #333333;" class="" y="215" x="537"/><text style="font-weight:Normal; font-size: 12px; text-anchor: middle; font-family: sans-serif; fill: #333333;" class="" y="212" x="568"/></g><g transform="translate(0,0)"><path style="fill:none;stroke:#333333;stroke-width:2;;" d="M646,214 C646,245 639,245  639,276"/><polyline style="fill:#ffffff;stroke:#333333;stroke-width:2;fill-opacity:0;" points="629,258 639,276 649,258"/><text style="font-weight:Normal; font-size: 12px; text-anchor: middle; font-family: sans-serif; fill: #333333;" class="" y="263" x="654"/><text style="font-weight:Normal; font-size: 12px; text-anchor: start; font-family: sans-serif; fill: #333333;" class="" y="245" x="642"/><text style="font-weight:Normal; font-size: 12px; text-anchor: middle; font-family: sans-serif; fill: #333333;" class="" y="228" x="659"/></g><g transform="translate(0,0)"><path style="fill:none;stroke:#333333;stroke-width:2;;" d="M712,312 C692,312 692,314  672,314"/><polyline style="fill:#ffffff;stroke:#333333;stroke-width:2;fill-opacity:0;" points="689,303 672,314 689,323"/><text style="font-weight:Normal; font-size: 12px; text-anchor: middle; font-family: sans-serif; fill: #333333;" class="" y="327" x="685"/><text style="font-weight:Normal; font-size: 12px; text-anchor: start; font-family: sans-serif; fill: #333333;" class="" y="313" x="692"/><text style="font-weight:Normal; font-size: 12px; text-anchor: middle; font-family: sans-serif; fill: #333333;" class="" y="326" x="699"/></g><g transform="translate(0,0)"><path style="fill:none;stroke:#333333;stroke-width:2;;" d="M893,319 C893,319 914.5048224136101,317.768570205878 923,312 935.0865690689137,303.79272928515064 948,276 948,276"/><polyline style="fill:#ffffff;stroke:#333333;stroke-width:2;fill-opacity:0;" points="949,295 948,276 931,287"/><text style="font-weight:Normal; font-size: 12px; text-anchor: middle; font-family: sans-serif; fill: #333333;" class="" y="279" x="927"/><text style="font-weight:Normal; font-size: 12px; text-anchor: start; font-family: sans-serif; fill: #333333;" class="" y="300" x="923"/><text style="font-weight:Normal; font-size: 12px; text-anchor: middle; font-family: sans-serif; fill: #333333;" class="" y="301" x="902"/></g><g transform="translate(0,0)"><path style="fill:none;stroke:#333333;stroke-width:2;;" d="M1018,157 C983,157 948,178.5  948,200"/><polyline style="fill:#ffffff;stroke:#333333;stroke-width:2;fill-opacity:0;" points="939,181 948,200 959,183"/><text style="font-weight:Normal; font-size: 12px; text-anchor: middle; font-family: sans-serif; fill: #333333;" class="" y="205" x="969"/><text style="font-weight:Normal; font-size: 12px; text-anchor: start; font-family: sans-serif; fill: #333333;" class="" y="170" x="969"/><text style="font-weight:Normal; font-size: 12px; text-anchor: middle; font-family: sans-serif; fill: #333333;" class="" y="176" x="1015"/></g><g transform="translate(0,0)"><path style="fill:none;stroke:#333333;stroke-width:2;;" d="M1019,312 C1019,312 1007.5980585154856,295.3795761475599 1002,287 994.9126619481603,276.39116325336636 981,255 981,255"/><polyline style="fill:#ffffff;stroke:#333333;stroke-width:2;fill-opacity:0;" points="998,264 981,255 982,274"/><text style="font-weight:Normal; font-size: 12px; text-anchor: middle; font-family: sans-serif; fill: #333333;" class="" y="275" x="976"/><text style="font-weight:Normal; font-size: 12px; text-anchor: start; font-family: sans-serif; fill: #333333;" class="" y="275" x="1002"/><text style="font-weight:Normal; font-size: 12px; text-anchor: middle; font-family: sans-serif; fill: #333333;" class="" y="309" x="999"/></g><g transform="translate(0,0)"><rect style="fill: #ffffff;fill-opacity: 1;stroke-opacity:0;stroke-width: 1;stroke:%stroke%;" rx="4" height="13" width="66" y="164" x="402"/><text style="font-weight:Normal; font-size: 12px; text-anchor: start; font-family: arial,helvetica,sans-serif; fill: #333333;" class="" y="164" x="402"><tspan alignment-baseline="before-edge" x="402">restore state</tspan></text></g><g transform="translate(0,0)"><rect style="fill: #ffffff;fill-opacity: 1;stroke-opacity:0;stroke-width: 1;stroke:%stroke%;" rx="4" height="13" width="66" y="279" x="380"/><text style="font-weight:Normal; font-size: 12px; text-anchor: start; font-family: arial,helvetica,sans-serif; fill: #333333;" class="" y="279" x="380"><tspan alignment-baseline="before-edge" x="380">restore state</tspan></text></g><g transform="translate(0,0)"><rect style="fill: #ffffff;fill-opacity: 1;stroke-opacity:0;stroke-width: 1;stroke:%stroke%;" rx="4" height="13" width="54" y="199" x="510"/><text style="font-weight:Normal; font-size: 12px; text-anchor: start; font-family: arial,helvetica,sans-serif; fill: #333333;" class="" y="199" x="510"><tspan alignment-baseline="before-edge" x="510">save state</tspan></text></g><g transform="translate(0,0)"><rect style="fill: #ffffff;fill-opacity: 1;stroke-opacity:0;stroke-width: 1;stroke:%stroke%;" rx="4" height="13" width="150" y="232" x="565"/><text style="font-weight:Normal; font-size: 12px; text-anchor: start; font-family: arial,helvetica,sans-serif; fill: #333333;" class="" y="232" x="565"><tspan alignment-baseline="before-edge" x="565">push raw message in queue</tspan></text></g><g transform="translate(0,0)"><rect style="fill: #ffffff;fill-opacity: 1;stroke-opacity:0;stroke-width: 1;stroke:%stroke%;" rx="4" height="13" width="58" y="300" x="898"/><text style="font-weight:Normal; font-size: 12px; text-anchor: start; font-family: arial,helvetica,sans-serif; fill: #333333;" class="" y="300" x="898"><tspan alignment-baseline="before-edge" x="898">push event</tspan></text></g><g transform="translate(0,0)"><rect style="fill: #ffffff;fill-opacity: 1;stroke-opacity:0;stroke-width: 1;stroke:%stroke%;" rx="4" height="13" width="52" y="152" x="949"/><text style="font-weight:Normal; font-size: 12px; text-anchor: start; font-family: arial,helvetica,sans-serif; fill: #333333;" class="" y="152" x="949"><tspan alignment-baseline="before-edge" x="949">pop event</tspan></text></g><g transform="translate(0,0)"><rect style="fill: #ffffff;fill-opacity: 1;stroke-opacity:0;stroke-width: 1;stroke:%stroke%;" rx="4" height="13" width="52" y="272" x="989"/><text style="font-weight:Normal; font-size: 12px; text-anchor: start; font-family: arial,helvetica,sans-serif; fill: #333333;" class="" y="272" x="989"><tspan alignment-baseline="before-edge" x="989">pop event</tspan></text></g><g transform="translate(0,0)"><path style="fill:none;stroke:#333333;stroke-width:2;;" d="M921,327 C921,322.5 935,322.5  935,318"/><polyline style="fill:#ffffff;stroke:#333333;stroke-width:2;fill-opacity:0;" points="942,336 935,318 922,333"/><text style="font-weight:Normal; font-size: 12px; text-anchor: middle; font-family: sans-serif; fill: #333333;" class="" y="314" x="913"/><text style="font-weight:Normal; font-size: 12px; text-anchor: start; font-family: sans-serif; fill: #333333;" class="" y="322" x="928"/><text style="font-weight:Normal; font-size: 12px; text-anchor: middle; font-family: sans-serif; fill: #333333;" class="" y="307" x="923"/></g><g transform="translate(0,0)"><g transform="matrix(1,0,0,1,390,219)"><path style="fill:none;stroke:#333333;stroke-width:3.0;;" d="m23.363689800000003,3.1236c22.395780000000002,-5.9157944 75.10514,-3.4079464 84.42522000000001,8.7125336c9.319552,12.1206624 -14.254504000000003,25.376704 -41.116240000000005,26.892751999999998c-26.86288,1.51480464 -55.461780000000005,-1.5597024 -64.14166,-14.0149168c-7.125888000000001,-10.2271528 2.1942316,-16.6668 20.832790000000003,-21.590384z"/></g><text style="font-weight:bold; font-size: 12px; text-anchor: middle; font-family: arial,helvetica,sans-serif; fill: #333333;" class="svg-txt-center" y="243" x="445">Login State</text></g><g transform="translate(0,0)"><g transform="matrix(1,0,0,1,564,121)"><path style="fill:none;stroke:rgb(51,51,51);stroke-width:3.0;;" d="m2.401500714176292,0.04601302285360004l152.43605741089672,1.0221300416917873l-3.423250283497473,36.870830675238395l-151.22791817456908,-0.1459056714797238z"/></g><text style="font-weight:bold; font-size: 12px; text-anchor: middle; font-family: arial,helvetica,sans-serif; fill: #6699cc;" class="" y="145" x="641">listen new message</text></g><g transform="translate(0,0)"><g transform="matrix(1,0,0,1,565,139)"><path style="fill:none;stroke:rgb(51,51,51);stroke-width:3.0;;" d="m3.0987105989371506,0.04601302285360004l196.69168698180223,1.0221300416917873l-4.41709713999674,36.870830675238395l-195.1327976446053,-0.1459056714797238z"/></g><text style="font-weight:bold; font-size: 12px; text-anchor: middle; font-family: arial,helvetica,sans-serif; fill: #6699cc;" class="" y="163" x="665">push raw message in queue</text></g><g transform="translate(0,0)"><g transform="matrix(1,0,0,1,225,189)"><path style="fill:none;stroke:rgb(51,51,51);stroke-width:3.0;;" d="m2.0451489952985193,0.04601302285360004l129.81651340798948,1.0221300416917873l-2.915284112397848,36.870830675238395l-128.7876464454395,-0.1459056714797238z"/></g><text style="font-weight:bold; font-size: 12px; text-anchor: middle; font-family: arial,helvetica,sans-serif; fill: #6699cc;" class="" y="213" x="291">sendMessage()</text></g><g transform="translate(0,0)"><g transform="matrix(1,0,0,1,225,206)"><path style="fill:none;stroke:rgb(51,51,51);stroke-width:3.0;;" d="m1.812745700378233,0.04601302285360004l115.0646368843543,1.0221300416917873l-2.5840018268980924,36.870830675238395l-114.1526866220941,-0.1459056714797238z"/></g><text style="font-weight:bold; font-size: 12px; text-anchor: middle; font-family: arial,helvetica,sans-serif; fill: #6699cc;" class="" y="230" x="283">sendImage()</text></g><g transform="translate(0,0)"><g transform="matrix(1,0,0,1,227,227)"><path style="fill:none;stroke:rgb(51,51,51);stroke-width:3.0;;" d="m1.9831747833197764,0.04601302285360004l125.88267966835343,1.0221300416917873l-2.8269421695979133,36.870830675238395l-124.88499049254739,-0.1459056714797238z"/></g><text style="font-weight:bold; font-size: 12px; text-anchor: middle; font-family: arial,helvetica,sans-serif; fill: #6699cc;" class="" y="251" x="291">sendEmotion()</text></g><g transform="translate(0,0)"><g transform="matrix(1,0,0,1,227,246)"><path style="fill:none;stroke:rgb(51,51,51);stroke-width:3.0;;" d="m1.5958359584526325,0.04601302285360004l101.29621879562815,1.0221300416917873l-2.2748050270983207,36.870830675238395l-100.49339078697172,-0.1459056714797238z"/></g><text style="font-weight:bold; font-size: 12px; text-anchor: middle; font-family: arial,helvetica,sans-serif; fill: #6699cc;" class="" y="270" x="278">sendFile()</text></g><g transform="translate(0,0)"><g transform="matrix(1,0,0,1,227,259)"><path style="fill:none;stroke:rgb(51,51,51);stroke-width:3.0;;" d="m0.9296131796811452,0.04601302285360004l59.007506094540666,1.0221300416917873l-1.3251291419990217,36.870830675238395l-58.53983929338158,-0.1459056714797238z"/></g><text style="font-weight:bold; font-size: 12px; text-anchor: middle; font-family: arial,helvetica,sans-serif; fill: #6699cc;" class="" y="283" x="257">...</text></g><g transform="translate(0,0)"><g transform="matrix(1,0,0,1,719,261)"><path style="fill:none;stroke:rgb(51,51,51);stroke-width:3.0;;" d="m2.742358880059378,0.04601302285360004l174.07214297889496,1.0221300416917873l-3.909130968897114,36.870830675238395l-172.69252591547567,-0.1459056714797238z"/></g><text style="font-weight:bold; font-size: 12px; text-anchor: middle; font-family: arial,helvetica,sans-serif; fill: #6699cc;" class="" y="285" x="807">fire event to subscribers</text></g><g transform="translate(0,0)"><g transform="matrix(1,0,0,1,573,175)"><path style="fill:none;stroke:#333333;stroke-width:3.0;;" d="m2.2620587372241197,0.04480215383113688l143.58493149671563,0.9952318826998984l-3.2244809121976195,35.90054565746897l-142.44694228056184,-0.14206604854604687z"/></g><text style="font-weight:bold; font-size: 12px; text-anchor: middle; font-family: arial,helvetica,sans-serif; fill: #333333;" class="" y="199" x="646">Wechat WebApi</text><text style="font-weight:bold; font-size: 12px; text-anchor: middle; font-family: arial,helvetica,sans-serif; fill: #333333;" class="" y="216" x="646"/></g><g transform="translate(0,0)"><g transform="matrix(1,0,0,1,952,328)"><path style="fill:none;stroke:rgb(51,51,51);stroke-width:3.0;;" d="m5.019911170278184,0.04601302285360004l318.6405329105196,1.0221300416917873l-7.155697366794717,36.870830675238395l-316.1151321842606,-0.1459056714797238z"/></g><text style="font-weight:bold; font-size: 12px; text-anchor: middle; font-family: arial,helvetica,sans-serif; fill: #ff0000;" class="" y="352" x="1114">You can process the wechat message as you wish !</text></g><g transform="translate(0,0)"><g transform="matrix(1,0,0,1,173,328)"><path style="fill:none;stroke:rgb(51,51,51);stroke-width:3.0;;" d="m5.624159737070928,0.04601302285360004l356.99541187197104,1.0221300416917873l-8.017031309094081,36.870830675238395l-354.1660277249586,-0.1459056714797238z"/></g><text style="font-weight:bold; font-size: 12px; text-anchor: middle; font-family: arial,helvetica,sans-serif; fill: #ff0000;" class="" y="352" x="354">You can send wechat message to any friends as you wish !</text></g><g transform="translate(0,0)"><g transform="matrix(1,0,0,1,224,170)"><path style="fill:none;stroke:rgb(51,51,51);stroke-width:3.0;;" d="m1.7972521473835472,0.04601302285360004l114.08117844944529,1.0221300416917873l-2.5619163411981085,36.870830675238395l-113.17702263387106,-0.1459056714797238z"/></g><text style="font-weight:bold; font-size: 12px; text-anchor: middle; font-family: arial,helvetica,sans-serif; fill: #6699cc;" class="" y="194" x="282">getContact()</text></g><g transform="translate(0,0)"><g transform="matrix(1,0,0,1,563,102)"><path style="fill:none;stroke:rgb(51,51,51);stroke-width:3.0;;" d="m1.7817585943888616,0.04601302285360004l113.09772001453628,1.0221300416917873l-2.539830855498125,36.870830675238395l-112.20135864564804,-0.1459056714797238z"/></g><text style="font-weight:bold; font-size: 12px; text-anchor: middle; font-family: arial,helvetica,sans-serif; fill: #6699cc;" class="" y="126" x="620">qrcode login</text></g><g transform="translate(0,0)"><g transform="matrix(1,0,0,1,718,242)"><path style="fill:none;stroke:rgb(51,51,51);stroke-width:3.0;;" d="m2.7888395390434355,0.04601302285360004l177.022518283622,1.0221300416917873l-3.975387425997065,36.870830675238395l-175.61951788014474,-0.1459056714797238z"/></g><text style="font-weight:bold; font-size: 12px; text-anchor: middle; font-family: arial,helvetica,sans-serif; fill: #6699cc;" class="" y="266" x="808">parse &amp; format message</text></g><g transform="translate(0,0)"><g transform="matrix(1,0,0,1,1019,102)"><path style="fill:none;stroke:rgb(51,51,51);stroke-width:3.0;;" d="m3.90437535466081,0.04601302285360004l247.83152559707082,1.0221300416917873l-5.565542396395892,36.870830675238395l-245.86732503220267,-0.1459056714797238z"/></g><text style="font-weight:bold; font-size: 12px; text-anchor: middle; font-family: arial,helvetica,sans-serif; fill: #6699cc;" class="" y="126" x="1145">save formated wechat message to DB</text></g><text style="font-weight:Normal; font-size: 16px; text-anchor: end; font-family: Arial; fill: #ccc;" y="366" x="1276">www.sketchboard.io</text></svg>